<svg width="1440" height="1440" viewBox="0 0 1440 1440" fill="none" xmlns="http://www.w3.org/2000/svg">
<mask id="mask0_7657_37" style="mask-type:alpha" maskUnits="userSpaceOnUse" x="0" y="0" width="1440" height="1440">
<rect width="1440" height="1440" fill="#D9D9D9"/>
</mask>
<g mask="url(#mask0_7657_37)">
<path d="M718.5 276.75C823.28 276.75 922.725 299.5 1016.84 345C1110.95 390.5 1189.5 456 1252.5 541.5C1255.5 546 1256.25 550.25 1254.75 554.25C1253.25 558.25 1250.5 562 1246.5 565.5C1243.5 568 1239.4 568.93 1234.2 568.29C1228.99 567.65 1225.09 564.72 1222.5 559.5C1165 479 1091.77 417.5 1002.81 375C913.85 332.5 819.08 310.75 718.5 309.75C619.5 309.75 526.25 331.375 438.75 374.625C351.25 417.875 278.5 479.5 220.5 559.5C215.5 565 210.75 567.875 206.25 568.125C201.75 568.375 197.75 566.75 194.25 563.25C191.25 561.25 189.5 558.125 189 553.875C188.5 549.625 189.5 546.5 192 544.5C254 460 331.17 394.25 423.51 347.25C515.84 300.25 614.17 276.75 718.5 276.75ZM718.575 417.75C851.025 417.75 965.375 462.53 1061.63 552.09C1157.88 641.65 1206 751.12 1206 880.5C1206 926.36 1189.13 965.2 1155.38 997.02C1121.62 1028.84 1080.99 1044.75 1033.5 1044.75C986 1044.75 945.125 1028.84 910.875 997.02C876.625 965.2 859.5 926.36 859.5 880.5C859.5 843 846.01 811.625 819.03 786.375C792.06 761.125 759.55 748.5 721.5 748.5C682.63 748.5 649.415 760.99 621.855 785.97C594.285 810.95 580.5 842.46 580.5 880.5C580.5 981.99 611 1066.87 672 1135.13C733 1203.38 809.5 1250.75 901.5 1277.25C907.05 1279.81 910.81 1282.62 912.78 1285.68C914.76 1288.75 915.75 1292.54 915.75 1297.04C913.75 1302.35 910.75 1306.5 906.75 1309.5C902.75 1312.5 898 1312.75 892.5 1310.25C794 1284.75 711.875 1233.85 646.125 1157.55C580.375 1081.25 547.5 988.9 547.5 880.5C547.5 834 564.375 794.875 598.125 763.125C631.875 731.375 673.035 715.5 721.605 715.5C768.675 715.5 808.925 731.375 842.355 763.125C875.785 794.875 892.5 834 892.5 880.5C892.5 918.04 906.595 949.175 934.785 973.905C962.985 998.635 995.735 1011 1033.04 1011C1071.85 1011 1104.63 998.625 1131.38 973.875C1158.13 949.125 1171.5 918 1171.5 880.5C1171.5 759.96 1127.23 658.575 1038.68 576.345C950.115 494.115 843.74 453 719.55 453C594.35 453 487.625 494.015 399.375 576.045C311.125 658.065 267 759.3 267 879.75C267 904.75 270.25 935.75 276.75 972.75C283.25 1009.75 294.5 1052.75 310.5 1101.75C312.5 1106.75 312.75 1110.88 311.25 1114.13C309.75 1117.38 306.5 1120.25 301.5 1122.75C296.5 1125.25 292 1125.72 288 1124.15C284 1122.59 281 1119.12 279 1113.75C264 1072.75 252.75 1033.38 245.25 995.625C237.75 957.875 234 919.5 234 880.5C234 751.12 281.895 641.65 377.685 552.09C473.475 462.53 587.105 417.75 718.575 417.75ZM721.5 128.25C784.18 128.25 845.52 135.625 905.52 150.375C965.51 165.125 1023.67 187.75 1080 218.25C1085.5 221.75 1089.13 225.75 1090.88 230.25C1092.63 234.75 1092.75 238.75 1091.25 242.25C1088.75 245.75 1085.75 248.625 1082.25 250.875C1078.75 253.125 1074.5 252.75 1069.5 249.75C1016.5 219.25 960.64 196.875 901.92 182.625C843.19 168.375 782.805 161.25 720.765 161.25C660.255 161.25 601 169 543 184.5C485 200 428.5 221.75 373.5 249.75C371.5 250.25 368.5 250 364.5 249C360.5 248 358 245.75 357 242.25C356.5 239.75 356.125 236.25 355.875 231.75C355.625 227.25 357 223.75 360 221.25C414.5 190.75 472.5 167.625 534 151.875C595.5 136.125 658 128.25 721.5 128.25ZM721.575 567C811.025 567 888.125 597.375 952.875 658.125C1017.63 718.875 1050 793 1050 880.5C1050 885.3 1048.45 889.25 1045.35 892.35C1042.25 895.45 1038.3 897 1033.5 897C1030.5 897 1027 895.45 1023 892.35C1019 889.25 1017 885.3 1017 880.5C1017 801 988.135 734.375 930.405 680.625C872.685 626.875 803.06 600 721.53 600C640.01 600 570.375 626.875 512.625 680.625C454.875 734.375 426 800.96 426 880.38C426 964.96 440.75 1036.13 470.25 1093.88C499.75 1151.63 542 1210.16 597 1269.47C602 1275.16 603.625 1280.13 601.875 1284.38C600.125 1288.63 598.5 1291.75 597 1293.75C594 1297.25 590.125 1299.25 585.375 1299.75C580.625 1300.25 576.5 1298.25 573 1293.75C516.5 1233.25 472.375 1170.5 440.625 1105.5C408.875 1040.5 393 965.485 393 880.455C393 792.985 425.4 718.875 490.2 658.125C554.99 597.375 632.115 567 721.575 567ZM718.935 864C723.645 864 727.5 865.6 730.5 868.8C733.5 872 735 875.9 735 880.5C735 961.07 763.375 1026.59 820.125 1077.06C876.875 1127.52 944 1152.75 1021.5 1152.75C1032.5 1152.75 1043.75 1152.25 1055.25 1151.25C1066.75 1150.25 1078 1148.75 1089 1146.75C1092 1146.75 1095 1147.63 1098 1149.38C1101 1151.13 1103 1154.36 1104 1159.07C1106 1164.08 1105.5 1168.15 1102.5 1171.29C1099.5 1174.43 1095.5 1176.25 1090.5 1176.75C1082 1180.25 1071.5 1182.63 1059 1183.88C1046.5 1185.13 1034 1185.75 1021.5 1185.75C935.5 1185.75 860.75 1156.71 797.25 1098.63C733.75 1040.55 702 967.84 702 880.5C702 875.9 703.395 872 706.185 868.8C708.985 865.6 713.235 864 718.935 864Z" fill="#F5F5F5"/>
</g>
</svg>
