<svg width="40" height="41" viewBox="0 0 40 41" fill="none" xmlns="http://www.w3.org/2000/svg">
<g clip-path="url(#clip0_70_771)">
<mask id="mask0_70_771" style="mask-type:alpha" maskUnits="userSpaceOnUse" x="0" y="0" width="40" height="41">
<rect y="0.5" width="40" height="40" fill="#262626"/>
</mask>
<g mask="url(#mask0_70_771)">
<path d="M17.993 37C15.9653 36.7593 14.0798 36.169 12.3368 35.2292C10.5937 34.2894 9.08217 33.0903 7.80208 31.632C6.522 30.1736 5.51621 28.4954 4.78471 26.5972C4.05324 24.6991 3.6875 22.6667 3.6875 20.5C3.6875 18.037 4.24885 15.7014 5.37154 13.493C6.49424 11.2847 8.01622 9.33564 9.9375 7.64583H5.10417V5.00696H14.6597V14.5625H12.0208V9.40275C10.2755 10.7916 8.89006 12.4467 7.86458 14.368C6.83911 16.2893 6.32638 18.3333 6.32638 20.5C6.32638 24.1019 7.43633 27.1829 9.65625 29.7431C11.8761 32.3033 14.6551 33.8287 17.993 34.3195V37ZM17.625 27.6736L11.0764 21.118L12.9167 19.2778L17.625 23.9861L27.0833 14.5278L28.9375 16.375L17.625 27.6736ZM25.3542 35.9792V26.4236H27.993V31.5972C29.7292 30.1852 31.1123 28.5243 32.1424 26.6146C33.1725 24.7049 33.6875 22.6667 33.6875 20.5C33.6875 16.8981 32.5752 13.8171 30.3507 11.2569C28.1262 8.69675 25.3495 7.17129 22.0208 6.68054V4C26.0903 4.49075 29.4919 6.27432 32.2257 9.35071C34.9595 12.4271 36.3264 16.1435 36.3264 20.5C36.3264 22.963 35.7627 25.2986 34.6354 27.507C33.5081 29.7153 31.9884 31.6597 30.0764 33.3403H34.9097V35.9792H25.3542Z" fill="#E3E4E0"/>
</g>
</g>
<defs>
<clipPath id="clip0_70_771">
<rect width="40" height="40" fill="white" transform="translate(0 0.5)"/>
</clipPath>
</defs>
</svg>
