<svg width="40" height="41" viewBox="0 0 40 41" fill="none" xmlns="http://www.w3.org/2000/svg">
<g clip-path="url(#clip0_70_769)">
<mask id="mask0_70_769" style="mask-type:alpha" maskUnits="userSpaceOnUse" x="0" y="0" width="40" height="41">
<rect y="0.5" width="40" height="40" fill="#262626"/>
</mask>
<g mask="url(#mask0_70_769)">
<path d="M7.88887 35.25C7.17707 35.25 6.55931 34.9881 6.03558 34.4644C5.51186 33.9407 5.25 33.3229 5.25 32.6111V8.38888C5.25 7.67707 5.51186 7.05931 6.03558 6.53558C6.55931 6.01186 7.17707 5.75 7.88887 5.75H32.1111C32.8229 5.75 33.4407 6.01186 33.9644 6.53558C34.4881 7.05931 34.75 7.67707 34.75 8.38888V32.6111C34.75 33.3229 34.4881 33.9407 33.9644 34.4644C33.4407 34.9881 32.8229 35.25 32.1111 35.25H7.88887ZM7.88887 8.38888V32.6111H32.1111V8.38888H28.4167V19.8055L24.3889 17.4167L20.3611 19.8055V8.38888H7.88887Z" fill="#E3E4E0"/>
</g>
</g>
<defs>
<clipPath id="clip0_70_769">
<rect width="40" height="40" fill="white" transform="translate(0 0.5)"/>
</clipPath>
</defs>
</svg>
