<svg width="40" height="41" viewBox="0 0 40 41" fill="none" xmlns="http://www.w3.org/2000/svg">
<g clip-path="url(#clip0_70_770)">
<mask id="mask0_70_770" style="mask-type:alpha" maskUnits="userSpaceOnUse" x="0" y="0" width="40" height="41">
<rect y="0.5" width="40" height="40" fill="#262626"/>
</mask>
<g mask="url(#mask0_70_770)">
<path d="M9.7193 33.6112C8.92019 33.6112 8.24864 33.3406 7.70467 32.7994C7.16067 32.2583 6.88867 31.5905 6.88867 30.796C6.88867 30.0015 7.15926 29.3322 7.70042 28.7882C8.24156 28.2443 8.90938 27.9723 9.70388 27.9723C10.4984 27.9723 11.1676 28.2437 11.7116 28.7865C12.2556 29.3292 12.5275 29.9939 12.5275 30.7805C12.5275 31.5797 12.2562 32.2512 11.7134 32.7952C11.1706 33.3392 10.5059 33.6112 9.7193 33.6112ZM20.0047 33.6112C19.2144 33.6112 18.5473 33.3406 18.0033 32.7994C17.4593 32.2583 17.1873 31.5905 17.1873 30.796C17.1873 30.0015 17.459 29.3322 18.0025 28.7882C18.5459 28.2443 19.2114 27.9723 19.999 27.9723C20.7866 27.9723 21.4546 28.2437 22.0033 28.7865C22.5519 29.3292 22.8262 29.9939 22.8262 30.7805C22.8262 31.5797 22.5535 32.2512 22.0081 32.7952C21.4627 33.3392 20.7949 33.6112 20.0047 33.6112ZM30.3027 33.6112C29.5035 33.6112 28.832 33.3406 28.288 32.7994C27.744 32.2583 27.472 31.5905 27.472 30.796C27.472 30.0015 27.7426 29.3322 28.2838 28.7882C28.8249 28.2443 29.4928 27.9723 30.2873 27.9723C31.0817 27.9723 31.7509 28.2437 32.2949 28.7865C32.8389 29.3292 33.1109 29.9939 33.1109 30.7805C33.1109 31.5797 32.8395 32.2512 32.2968 32.7952C31.754 33.3392 31.0893 33.6112 30.3027 33.6112ZM9.7193 23.3125C8.92019 23.3125 8.24864 23.0408 7.70467 22.4974C7.16067 21.9539 6.88867 21.2884 6.88867 20.5008C6.88867 19.7133 7.15926 19.0452 7.70042 18.4966C8.24156 17.948 8.90938 17.6737 9.70388 17.6737C10.4984 17.6737 11.1676 17.9463 11.7116 18.4917C12.2556 19.0371 12.5275 19.7049 12.5275 20.4952C12.5275 21.2854 12.2562 21.9526 11.7134 22.4966C11.1706 23.0406 10.5059 23.3125 9.7193 23.3125ZM20.0047 23.3125C19.2144 23.3125 18.5473 23.0408 18.0033 22.4974C17.4593 21.9539 17.1873 21.2884 17.1873 20.5008C17.1873 19.7133 17.459 19.0452 18.0025 18.4966C18.5459 17.948 19.2114 17.6737 19.999 17.6737C20.7866 17.6737 21.4546 17.9463 22.0033 18.4917C22.5519 19.0371 22.8262 19.7049 22.8262 20.4952C22.8262 21.2854 22.5535 21.9526 22.0081 22.4966C21.4627 23.0406 20.7949 23.3125 20.0047 23.3125ZM30.3027 23.3125C29.5035 23.3125 28.832 23.0408 28.288 22.4974C27.744 21.9539 27.472 21.2884 27.472 20.5008C27.472 19.7133 27.7426 19.0452 28.2838 18.4966C28.8249 17.948 29.4928 17.6737 30.2873 17.6737C31.0817 17.6737 31.7509 17.9463 32.2949 18.4917C32.8389 19.0371 33.1109 19.7049 33.1109 20.4952C33.1109 21.2854 32.8395 21.9526 32.2968 22.4966C31.754 23.0406 31.0893 23.3125 30.3027 23.3125ZM9.7193 13.0278C8.92019 13.0278 8.24864 12.7572 7.70467 12.2161C7.16067 11.6749 6.88867 11.0071 6.88867 10.2126C6.88867 9.41811 7.15926 8.74889 7.70042 8.20492C8.24156 7.66092 8.90938 7.38892 9.70388 7.38892C10.4984 7.38892 11.1676 7.6603 11.7116 8.20308C12.2556 8.74586 12.5275 9.41056 12.5275 10.1972C12.5275 10.9963 12.2562 11.6679 11.7134 12.2118C11.1706 12.7558 10.5059 13.0278 9.7193 13.0278ZM20.0047 13.0278C19.2144 13.0278 18.5473 12.7572 18.0033 12.2161C17.4593 11.6749 17.1873 11.0071 17.1873 10.2126C17.1873 9.41811 17.459 8.74889 18.0025 8.20492C18.5459 7.66092 19.2114 7.38892 19.999 7.38892C20.7866 7.38892 21.4546 7.6603 22.0033 8.20308C22.5519 8.74586 22.8262 9.41056 22.8262 10.1972C22.8262 10.9963 22.5535 11.6679 22.0081 12.2118C21.4627 12.7558 20.7949 13.0278 20.0047 13.0278ZM30.3027 13.0278C29.5035 13.0278 28.832 12.7572 28.288 12.2161C27.744 11.6749 27.472 11.0071 27.472 10.2126C27.472 9.41811 27.7426 8.74889 28.2838 8.20492C28.8249 7.66092 29.4928 7.38892 30.2873 7.38892C31.0817 7.38892 31.7509 7.6603 32.2949 8.20308C32.8389 8.74586 33.1109 9.41056 33.1109 10.1972C33.1109 10.9963 32.8395 11.6679 32.2968 12.2118C31.754 12.7558 31.0893 13.0278 30.3027 13.0278Z" fill="#E3E4E0"/>
</g>
</g>
<defs>
<clipPath id="clip0_70_770">
<rect width="40" height="40" fill="white" transform="translate(0 0.5)"/>
</clipPath>
</defs>
</svg>
